<svg width="390" height="844" viewBox="0 0 390 844" fill="none" xmlns="http://www.w3.org/2000/svg">
<g clip-path="url(#clip0_2023_5)">
<rect width="390" height="844" fill="#F9F9F8"/>
<path fill-rule="evenodd" clip-rule="evenodd" d="M1.8279 110.744C91.2773 117.814 79.8066 261.886 133.936 333.448C178.691 392.619 271.943 412.117 285.02 485.145C299.792 567.648 275.777 672.913 201.761 712.238C129.42 750.671 53.9187 666.397 -26.4666 650.635C-85.5545 639.048 -164.558 682.692 -199.392 633.578C-234.703 583.79 -167.731 522.398 -160.394 461.802C-154.08 409.649 -182.275 357.887 -160.238 310.198C-122.882 229.356 -86.9502 103.727 1.8279 110.744Z" fill="#E8E8E8"/>
<path fill-rule="evenodd" clip-rule="evenodd" d="M555.326 82.7158C496.433 110.803 431.693 106.228 367.268 95.1057C291.219 81.9762 190.341 85.3583 159.462 14.3728C128.543 -56.7062 208.409 -123.241 242.031 -192.794C266.397 -243.198 286.431 -291.322 326.222 -330.598C388.008 -391.585 443.27 -486.436 529.654 -476.697C618.055 -466.731 671.682 -370.798 704.807 -287.917C733.989 -214.901 724.924 -134.188 695.601 -61.4832C669.485 3.27036 618.222 52.7194 555.326 82.7158Z" fill="#1B4242"/>
<path fill-rule="evenodd" clip-rule="evenodd" d="M-78.2392 1275.7C-141.94 1261.57 -190.139 1218.11 -234.059 1169.68C-285.904 1112.51 -367.478 1053.07 -348.108 978.124C-328.712 903.078 -224.814 899.818 -155.498 865.71C-105.266 840.992 -59.8507 815.404 -4.31391 808.951C81.9214 798.932 183.864 758.211 245.94 819.069C309.465 881.347 292.661 989.96 267.737 1075.66C245.78 1151.17 188.945 1209.19 121.076 1248.43C60.6304 1283.38 -10.2092 1290.78 -78.2392 1275.7Z" fill="#5C8374"/>
</g>
<defs>
<clipPath id="clip0_2023_5">
<rect width="390" height="844" fill="white"/>
</clipPath>
</defs>
</svg>
